<svg id="visual" viewBox="0 0 960 540" width="960" height="540" xmlns="http://www.w3.org/2000/svg" xmlns:xlink="http://www.w3.org/1999/xlink" version="1.1"><rect x="0" y="0" width="960" height="540" fill="#2b6777"></rect><defs><linearGradient id="grad1_0" x1="43.8%" y1="100%" x2="100%" y2="0%"><stop offset="14.444444444444446%" stop-color="#2b6777" stop-opacity="1"></stop><stop offset="85.55555555555554%" stop-color="#2b6777" stop-opacity="1"></stop></linearGradient></defs><defs><linearGradient id="grad2_0" x1="0%" y1="100%" x2="56.3%" y2="0%"><stop offset="14.444444444444446%" stop-color="#2b6777" stop-opacity="1"></stop><stop offset="85.55555555555554%" stop-color="#2b6777" stop-opacity="1"></stop></linearGradient></defs><g transform="translate(960, 540)"><path d="M-270 0C-236.6 -26.1 -203.3 -52.2 -185.7 -76.9C-168.1 -101.7 -166.3 -125.1 -157 -157C-147.6 -188.9 -130.7 -229.2 -103.3 -249.4C-75.9 -269.7 -38 -269.8 0 -270L0 0Z" fill="#ffffff"></path></g><g transform="translate(0, 0)"><path d="M270 0C269.4 38.1 268.9 76.3 249.4 103.3C230 130.4 191.6 146.4 162.6 162.6C133.6 178.9 113.9 195.5 88.4 213.4C62.9 231.4 31.4 250.7 0 270L0 0Z" fill="#ffffff"></path></g></svg>