<svg id="visual" viewBox="0 0 900 600" width="900" height="600" xmlns="http://www.w3.org/2000/svg" xmlns:xlink="http://www.w3.org/1999/xlink" version="1.1"><rect x="0" y="0" width="900" height="600" fill="#407a8a"></rect><defs><linearGradient id="grad1_0" x1="33.3%" y1="0%" x2="100%" y2="100%"><stop offset="20%" stop-color="#407a8a" stop-opacity="1"></stop><stop offset="80%" stop-color="#407a8a" stop-opacity="1"></stop></linearGradient></defs><defs><linearGradient id="grad2_0" x1="0%" y1="0%" x2="66.7%" y2="100%"><stop offset="20%" stop-color="#407a8a" stop-opacity="1"></stop><stop offset="80%" stop-color="#407a8a" stop-opacity="1"></stop></linearGradient></defs><g transform="translate(900, 0)"><path d="M0 324.5C-41.7 304.2 -83.4 283.8 -104.9 253.1C-126.3 222.4 -127.4 181.4 -162.6 162.6C-197.8 143.9 -267.1 147.6 -299.8 124.2C-332.5 100.8 -328.5 50.4 -324.5 0L0 0Z" fill="#ffffff"></path></g><g transform="translate(0, 600)"><path d="M0 -324.5C35.8 -306 71.5 -287.4 114 -275.3C156.6 -263.2 205.9 -257.6 229.5 -229.5C253 -201.3 250.8 -150.7 262.4 -108.7C273.9 -66.7 299.2 -33.3 324.5 0L0 0Z" fill="#ffffff"></path></g></svg>