<svg id="visual" viewBox="0 0 960 540" width="960" height="540" xmlns="http://www.w3.org/2000/svg" xmlns:xlink="http://www.w3.org/1999/xlink" version="1.1"><rect x="0" y="0" width="960" height="540" fill="#2b6777"></rect><defs><linearGradient id="grad1_0" x1="43.8%" y1="100%" x2="100%" y2="0%"><stop offset="14.444444444444446%" stop-color="#2b6777" stop-opacity="1"></stop><stop offset="85.55555555555554%" stop-color="#2b6777" stop-opacity="1"></stop></linearGradient></defs><defs><linearGradient id="grad2_0" x1="0%" y1="100%" x2="56.3%" y2="0%"><stop offset="14.444444444444446%" stop-color="#2b6777" stop-opacity="1"></stop><stop offset="85.55555555555554%" stop-color="#2b6777" stop-opacity="1"></stop></linearGradient></defs><g transform="translate(960, 540)"><path d="M-297 0C-261.8 -25.2 -226.7 -50.3 -218 -90.3C-209.4 -130.3 -227.4 -185.1 -210 -210C-192.7 -234.9 -140 -229.8 -99.1 -239.3C-58.2 -248.8 -29.1 -272.9 0 -297L0 0Z" fill="#ffffff"></path></g><g transform="translate(0, 0)"><path d="M297 0C293.6 44.6 290.2 89.3 259.6 107.5C229 125.8 171.2 117.7 147.1 147.1C123 176.4 132.6 243.2 113.7 274.4C94.8 305.6 47.4 301.3 0 297L0 0Z" fill="#ffffff"></path></g></svg>