<svg id="visual" viewBox="0 0 900 600" width="900" height="600" xmlns="http://www.w3.org/2000/svg" xmlns:xlink="http://www.w3.org/1999/xlink" version="1.1"><rect x="0" y="0" width="900" height="600" fill="#f2f9ff"></rect><defs><linearGradient id="grad1_0" x1="33.3%" y1="100%" x2="100%" y2="0%"><stop offset="20%" stop-color="#f2f9ff" stop-opacity="1"></stop><stop offset="80%" stop-color="#f2f9ff" stop-opacity="1"></stop></linearGradient></defs><defs><linearGradient id="grad2_0" x1="0%" y1="100%" x2="66.7%" y2="0%"><stop offset="20%" stop-color="#f2f9ff" stop-opacity="1"></stop><stop offset="80%" stop-color="#f2f9ff" stop-opacity="1"></stop></linearGradient></defs><g transform="translate(900, 600)"><path d="M-486.7 0C-444.6 -47.7 -402.5 -95.5 -386.2 -160C-369.9 -224.4 -379.5 -305.6 -344.2 -344.2C-308.9 -382.8 -228.6 -378.8 -163.8 -395.4C-98.9 -412.1 -49.5 -449.4 0 -486.7L0 0Z" fill="#407a8a"></path></g><g transform="translate(0, 0)"><path d="M486.7 0C455.9 63.7 425.1 127.3 375.1 155.4C325.1 183.4 256 175.8 229.1 229.1C202.2 282.4 217.4 396.6 186.3 449.7C155.1 502.8 77.6 494.8 0 486.7L0 0Z" fill="#407a8a"></path></g></svg>