<svg id="visual" viewBox="0 0 900 600" width="900" height="600" xmlns="http://www.w3.org/2000/svg" xmlns:xlink="http://www.w3.org/1999/xlink" version="1.1"><rect x="0" y="0" width="900" height="600" fill="#2b6777"></rect><defs><linearGradient id="grad1_0" x1="33.3%" y1="0%" x2="100%" y2="100%"><stop offset="20%" stop-color="#2b6777" stop-opacity="1"></stop><stop offset="80%" stop-color="#2b6777" stop-opacity="1"></stop></linearGradient></defs><defs><linearGradient id="grad2_0" x1="0%" y1="0%" x2="66.7%" y2="100%"><stop offset="20%" stop-color="#2b6777" stop-opacity="1"></stop><stop offset="80%" stop-color="#2b6777" stop-opacity="1"></stop></linearGradient></defs><g transform="translate(900, 0)"><path d="M0 243.4C-21.7 225 -43.3 206.7 -63.7 195.9C-84 185.2 -103 182 -128.1 176.4C-153.3 170.7 -184.5 162.5 -196.9 143.1C-209.3 123.6 -202.7 93.1 -207.3 67.4C-211.9 41.7 -227.7 20.8 -243.4 0L0 0Z" fill="#ffffff"></path></g><g transform="translate(0, 600)"><path d="M0 -243.4C28.1 -244.1 56.1 -244.8 75.2 -231.5C94.3 -218.1 104.5 -190.7 127.5 -175.6C150.6 -160.4 186.6 -157.5 188.5 -137C190.4 -116.4 158.2 -78.3 161.7 -52.5C165.1 -26.8 204.3 -13.4 243.4 0L0 0Z" fill="#ffffff"></path></g></svg>