<svg id="visual" viewBox="0 0 900 600" width="900" height="600" xmlns="http://www.w3.org/2000/svg" xmlns:xlink="http://www.w3.org/1999/xlink" version="1.1"><rect x="0" y="0" width="900" height="600" fill="#2b6777"></rect><defs><linearGradient id="grad1_0" x1="33.3%" y1="100%" x2="100%" y2="0%"><stop offset="20%" stop-color="#2b6777" stop-opacity="1"></stop><stop offset="80%" stop-color="#2b6777" stop-opacity="1"></stop></linearGradient></defs><defs><linearGradient id="grad2_0" x1="0%" y1="100%" x2="66.7%" y2="0%"><stop offset="20%" stop-color="#2b6777" stop-opacity="1"></stop><stop offset="80%" stop-color="#2b6777" stop-opacity="1"></stop></linearGradient></defs><g transform="translate(900, 600)"><path d="M-243.4 0C-225 -21.7 -206.7 -43.3 -195.9 -63.7C-185.2 -84 -182 -103 -176.4 -128.1C-170.7 -153.3 -162.5 -184.5 -143.1 -196.9C-123.6 -209.3 -93.1 -202.7 -67.4 -207.3C-41.7 -211.9 -20.8 -227.7 0 -243.4L0 0Z" fill="#ffffff"></path></g><g transform="translate(0, 0)"><path d="M243.4 0C244.1 28.1 244.8 56.1 231.5 75.2C218.1 94.3 190.7 104.5 175.6 127.5C160.4 150.6 157.5 186.6 137 188.5C116.4 190.4 78.3 158.2 52.5 161.7C26.8 165.1 13.4 204.3 0 243.4L0 0Z" fill="#ffffff"></path></g></svg>