<svg id="visual" viewBox="0 0 540 960" width="540" height="960" xmlns="http://www.w3.org/2000/svg" xmlns:xlink="http://www.w3.org/1999/xlink" version="1.1"><path d="M0 231L18 239C36 247 72 263 108 259.8C144 256.7 180 234.3 216 213.7C252 193 288 174 324 188.5C360 203 396 251 432 273.3C468 295.7 504 292.3 522 290.7L540 289L540 0L522 0C504 0 468 0 432 0C396 0 360 0 324 0C288 0 252 0 216 0C180 0 144 0 108 0C72 0 36 0 18 0L0 0Z" fill="#c8d8e4"></path><path d="M0 510L18 524.3C36 538.7 72 567.3 108 557.7C144 548 180 500 216 487.2C252 474.3 288 496.7 324 547.8C360 599 396 679 432 693.5C468 708 504 657 522 631.5L540 606L540 287L522 288.7C504 290.3 468 293.7 432 271.3C396 249 360 201 324 186.5C288 172 252 191 216 211.7C180 232.3 144 254.7 108 257.8C72 261 36 245 18 237L0 229Z" fill="#7c9dad"></path><path d="M0 961L18 961C36 961 72 961 108 961C144 961 180 961 216 961C252 961 288 961 324 961C360 961 396 961 432 961C468 961 504 961 522 961L540 961L540 604L522 629.5C504 655 468 706 432 691.5C396 677 360 597 324 545.8C288 494.7 252 472.3 216 485.2C180 498 144 546 108 555.7C72 565.3 36 536.7 18 522.3L0 508Z" fill="#2b6777"></path></svg>